<?xml version="1.0" standalone="no"?><!DOCTYPE svg PUBLIC "-//W3C//DTD SVG 1.1//EN" "http://www.w3.org/Graphics/SVG/1.1/DTD/svg11.dtd"><svg t="1768694178333" class="icon" viewBox="0 0 1890 1024" version="1.1" xmlns="http://www.w3.org/2000/svg" p-id="8970" xmlns:xlink="http://www.w3.org/1999/xlink" width="369.140625" height="200"><path d="M622.276923 401.723077h204.8v204.8H622.276923z" fill="#36CED0" p-id="8971"></path><path d="M827.076923 606.523077h204.8v204.8h-204.8z" fill="#624AFF" p-id="8972"></path><path d="M1031.876923 401.723077h204.8v204.8h-204.8z" fill="#36CED0" p-id="8973"></path><path d="M220.553846 0h385.969231v181.169231H220.553846zM220.553846 181.169231h181.169231v204.8H220.553846zM220.553846 590.769231h181.169231v401.723077H220.553846z" fill="#624AFF" p-id="8974"></path><path d="M393.846154 811.323077h204.8v181.169231H393.846154z" fill="#624AFF" p-id="8975"></path><path d="M0 181.169231h220.553846v204.8H0z" fill="#36CED0" p-id="8976"></path><path d="M0 385.969231h220.553846v204.8H0z" fill="#624AFF" p-id="8977"></path><path d="M1252.430769 0h385.969231v181.169231h-385.969231zM1457.230769 181.169231h181.169231v204.8h-181.169231zM1457.230769 590.769231h181.169231v401.723077h-181.169231z" fill="#624AFF" p-id="8978"></path><path d="M1260.307692 811.323077h204.8v181.169231H1260.307692z" fill="#624AFF" p-id="8979"></path><path d="M1638.4 181.169231h220.553846v204.8h-220.553846z" fill="#36CED0" p-id="8980"></path><path d="M1638.4 385.969231h220.553846v204.8h-220.553846z" fill="#624AFF" p-id="8981"></path></svg>